<svg width="24" height="24" viewBox="0 0 24 24" fill="none" xmlns="http://www.w3.org/2000/svg">
<path fill-rule="evenodd" clip-rule="evenodd" d="M17.7889 17.9458H15.6805C15.412 17.9455 15.1468 18.0045 14.9041 18.1186C14.6613 18.2327 14.4471 18.3991 14.2768 18.6056L12.5526 20.6842C12.474 20.7827 12.374 20.8622 12.2601 20.9169C12.1462 20.9716 12.0214 21 11.895 21C11.7686 21 11.6438 20.9716 11.5299 20.9169C11.416 20.8622 11.316 20.7827 11.2374 20.6842L9.54632 18.4847C9.41648 18.316 9.2491 18.1795 9.05733 18.086C8.86555 17.9925 8.65461 17.9445 8.44105 17.9458H6.42105C5.24852 17.9458 4.124 17.4823 3.2949 16.6573C2.46579 15.8323 2 14.7134 2 13.5467V7.45405C2.00293 6.27176 2.47699 5.13888 3.31822 4.3039C4.15945 3.46892 5.29916 3.00001 6.48737 3.00001H17.4684C18.063 2.99857 18.652 3.11384 19.2017 3.33924C19.7515 3.56464 20.2511 3.89574 20.6721 4.31356C21.093 4.73139 21.427 5.22773 21.6548 5.77418C21.8827 6.32062 22 6.90643 22 7.49804V13.7667C22 14.3164 21.891 14.8608 21.6792 15.3685C21.4675 15.8763 21.1571 16.3374 20.7659 16.7256C20.3748 17.1139 19.9105 17.4215 19.3996 17.6308C18.8888 17.8402 18.3414 17.9472 17.7889 17.9458Z" stroke="#888888" stroke-width="1.4"/>
</svg>
