<svg width="24" height="24" viewBox="0 0 24 24" fill="#888888" xmlns="http://www.w3.org/2000/svg">
<path fill-rule="evenodd" clip-rule="evenodd" d="M14.5123 12.3464C16.2962 11.1728 17.4855 9.06798 17.4855 6.66666C17.4855 2.98477 14.6897 0 11.2407 0C7.79177 0 4.99587 2.98477 4.99587 6.66666C4.99587 9.06798 6.18512 11.1728 7.96916 12.3464C3.38864 13.5873 0 18.0183 0 23.2942C0 23.684 0.296036 24 0.661216 24H21.8202C22.1854 24 22.4814 23.684 22.4814 23.2942C22.4814 18.0183 19.0927 13.5873 14.5123 12.3464ZM16.0742 6.66666C16.0742 9.51646 13.9102 11.8266 11.2407 11.8266C8.57122 11.8266 6.4072 9.51646 6.4072 6.66666C6.4072 3.81688 8.57122 1.50666 11.2407 1.50666C13.9102 1.50666 16.0742 3.81688 16.0742 6.66666ZM1.44158 22.4934C1.82319 17.4624 5.76861 13.5066 10.5795 13.5066H11.9019C16.7128 13.5066 20.6582 17.4624 21.0398 22.4934H1.44158Z" fill="#888888"/>
<path d="M18.668 8.83333H23.3347H18.668ZM21.0013 6.5V11.1667V6.5Z" stroke="#888888" stroke-width="1.31833" stroke-linecap="round" stroke-linejoin="round"/>
</svg>