<svg width="24" height="24" viewBox="0 0 24 24" fill="none" xmlns="http://www.w3.org/2000/svg">
<path d="M6.47059 11.2663L6.22641 10.5571L6.22634 10.5572L6.47059 11.2663ZM2.02093 12.4566L2.77093 12.4589L2.77093 12.4566L2.02093 12.4566ZM2 19.2935L1.25 19.2912V19.2935H2ZM3.21235 20.9888L3.213 20.2387L3.19961 20.2389L3.21235 20.9888ZM15.9307 20.9999L15.93 21.7499H15.9307V20.9999ZM17.5621 8.95872L17.611 8.21032L17.5866 8.20872H17.5621V8.95872ZM14.1961 8.35861L14.9461 8.36348V8.35861H14.1961ZM11.2997 3.00159L11.3274 3.75108H11.3274L11.2997 3.00159ZM9.5978 4.75676L8.84797 4.74085L8.8478 4.74881V4.75676H9.5978ZM7.22059 20.9999V11.2663H5.72059V20.9999H7.22059ZM5.72059 11.2663V20.9999H7.22059V11.2663H5.72059ZM6.22634 10.5572C5.8856 10.6745 5.62392 10.6588 5.29532 10.6588V12.1588C5.55744 12.1588 6.09056 12.1904 6.71484 11.9754L6.22634 10.5572ZM5.29532 10.6588H3.59508V12.1588H5.29532V10.6588ZM3.59508 10.6588C2.88714 10.6588 2.30007 10.8195 1.87731 11.1683C1.43889 11.53 1.27094 12.017 1.27093 12.4566L2.77093 12.4566C2.77093 12.4005 2.78553 12.3636 2.83193 12.3253C2.89398 12.2741 3.09398 12.1588 3.59508 12.1588V10.6588ZM1.27093 12.4543L1.25 19.2912L2.75 19.2958L2.77093 12.4589L1.27093 12.4543ZM1.25 19.2935C1.25 19.9915 1.41505 20.6025 1.77435 21.0538C2.14707 21.522 2.67564 21.748 3.22509 21.7387L3.19961 20.2389C3.09553 20.2407 3.01793 20.2075 2.94786 20.1195C2.86436 20.0147 2.75 19.7724 2.75 19.2935H1.25ZM3.2117 21.7388L15.93 21.7499L15.9314 20.2499L3.213 20.2388L3.2117 21.7388ZM15.9307 21.7499C18.0344 21.7499 19.5119 20.7465 20.4406 19.5017C21.3481 18.2853 21.75 16.8197 21.75 15.7686H20.25C20.25 16.5016 19.9494 17.6516 19.2383 18.6048C18.5483 19.5297 17.4912 20.2499 15.9307 20.2499V21.7499ZM21.75 15.7686V12.1077H20.25V15.7686H21.75ZM21.75 12.1077C21.75 10.5857 21.0251 9.59273 20.1208 9.00234C19.2573 8.43868 18.2562 8.25246 17.611 8.21032L17.5132 9.70713C18.0139 9.73983 18.7317 9.88688 19.3008 10.2584C19.8289 10.6032 20.25 11.1472 20.25 12.1077H21.75ZM17.5621 8.20872H14.9299V9.70872H17.5621V8.20872ZM14.9299 8.20872C14.8676 8.20872 14.8489 8.19838 14.857 8.20179C14.8667 8.20588 14.886 8.21744 14.9046 8.23867C14.9214 8.25778 14.9309 8.27691 14.9363 8.29237C14.9407 8.30529 14.9463 8.32699 14.9461 8.36348L13.4461 8.35374C13.4445 8.60971 13.5293 8.94592 13.7777 9.22868C14.0487 9.53714 14.4492 9.70872 14.9299 9.70872V8.20872ZM14.9461 8.35861C14.9461 6.3975 14.635 4.88722 14.0224 3.84947C13.3821 2.76477 12.412 2.20997 11.272 2.2521L11.3274 3.75108C11.8638 3.73125 12.3419 3.95346 12.7307 4.61202C13.1472 5.31752 13.4461 6.51674 13.4461 8.35861H14.9461ZM11.272 2.2521C10.3615 2.28575 9.72868 2.70784 9.34335 3.24845C8.9814 3.75625 8.85653 4.33723 8.84797 4.74085L10.3476 4.77267C10.3512 4.606 10.4116 4.33398 10.5648 4.11908C10.6946 3.93697 10.9067 3.76663 11.3274 3.75108L11.272 2.2521ZM8.8478 4.75676V7.66294H10.3478V4.75676H8.8478ZM8.8478 7.66294C8.8478 8.3389 8.53245 8.94116 8.01951 9.45354C7.50211 9.97037 6.82341 10.3516 6.22641 10.5571L6.71477 11.9754C7.49204 11.7078 8.37694 11.2167 9.07959 10.5148C9.78668 9.80845 10.3478 8.84564 10.3478 7.66294H8.8478Z" fill="#888888"/>
</svg>
