<svg width="24" height="24" viewBox="0 0 24 24" fill="none" xmlns="http://www.w3.org/2000/svg">
<path fill-rule="evenodd" clip-rule="evenodd" d="M3.55891 3.22588C3.83179 2.93649 4.28743 2.92326 4.57663 3.19632C4.86582 3.46938 4.87905 3.92533 4.60618 4.21471L2.66419 6.27417L2.2791 5.85065C2.49636 6.08959 2.49305 6.45567 2.27149 6.69063L2.66419 6.27417L4.61505 8.41966C4.88263 8.71395 4.86115 9.16958 4.56706 9.43735C4.27296 9.70512 3.81763 9.68362 3.55004 9.38933L1.21409 6.82032C0.924784 6.50215 0.929199 6.01468 1.22423 5.70181L3.55891 3.22588Z" fill="#888888"/>
<path fill-rule="evenodd" clip-rule="evenodd" d="M20.441 3.23542C20.1682 2.94596 19.7125 2.9326 19.4233 3.20558C19.134 3.47856 19.1206 3.93451 19.3934 4.22397L21.3358 6.28494L19.3846 8.43198C19.1171 8.72634 19.1387 9.18197 19.4329 9.44966C19.727 9.71734 20.1823 9.69572 20.4498 9.40136L22.7859 6.83092C23.0749 6.51279 23.0705 6.02556 22.7757 5.71273L20.441 3.23542ZM21.7205 5.86158L21.3358 6.28494L21.7282 6.70127C21.5068 6.46636 21.5034 6.10049 21.7205 5.86158Z" fill="#888888"/>
<ellipse cx="11.9941" cy="14.9964" rx="5.99949" ry="6.00345" stroke="#888888" stroke-width="1.425"/>
<path fill-rule="evenodd" clip-rule="evenodd" d="M20.6114 6.28218C20.6147 6.68004 20.295 7.00525 19.8974 7.00855C17.267 7.0304 14.8196 7.68616 10.1051 10.0552L9.45898 8.7676C14.2584 6.35589 16.9367 5.59227 19.8855 5.56777C20.2831 5.56447 20.6081 5.88432 20.6114 6.28218Z" fill="#888888"/>
<path fill-rule="evenodd" clip-rule="evenodd" d="M3.3511 6.28218C3.3478 6.68004 3.66744 7.00525 4.06504 7.00855C6.68158 7.03028 8.96043 7.9217 13.8964 10.067L14.47 8.74542C9.59548 6.62684 7.03977 5.59238 4.07699 5.56777C3.67939 5.56447 3.3544 5.88432 3.3511 6.28218Z" fill="#888888"/>
</svg>
